# Blender 4.2.3 LTS
# www.blender.org
mtllib new_head.mtl
o Plane
v 0.245162 0.009971 1.065331
v 0.159596 1.293331 0.271572
v 0.453208 -0.225042 0.608064
v 0.299631 1.085716 0.043427
v 0.431601 1.647017 0.336557
v 1.584126 0.946555 -0.414307
v 1.374653 1.608699 -0.229206
v 1.399927 -0.362420 -0.131139
v 0.688628 -1.055347 0.422847
v 0.990575 -1.217546 0.121052
v 0.436343 -1.303761 0.627415
v 0.402956 -1.966512 0.469452
v 0.119897 -1.387284 0.668287
v 0.173328 -1.905447 0.739064
v 0.622344 2.758577 -0.116336
v 0.231502 -0.383949 0.743584
v 0.212975 -0.749076 0.792049
v 1.258077 2.507661 -0.480059
v 0.227174 -1.152456 0.706441
v 0.225124 -0.953818 0.666842
v 1.828683 0.891879 -1.644997
v 1.592105 2.613208 -1.779834
v 1.599980 -0.879206 -1.209689
v 1.305654 -1.611443 -0.498218
v 0.654470 -2.050973 -0.371603
v 0.633576 3.438415 -1.626783
v 1.394859 -1.610305 -0.912646
v 1.490132 -1.232453 -1.456377
v 1.629712 -0.348498 -1.984563
v 1.334042 2.494535 -3.532488
v 1.388209 -1.701335 -3.110374
v 1.438262 -1.791492 -2.464796
v 1.337893 -2.427129 -2.084987
v 0.633280 2.918291 -3.728305
v 1.560105 -0.223120 -2.882343
v 1.473000 1.043449 -3.768281
v 0.844727 1.148215 -4.300970
v 0.817051 -3.015712 -1.360639
v 0.726495 -0.128815 -3.608654
v 0.788775 -1.672289 -3.721606
v 0.000000 0.008637 1.058719
v -0.245162 0.009971 1.065331
v 0.000000 1.293331 0.271572
v -0.159596 1.293331 0.271572
v -0.453208 -0.225042 0.608064
v -0.299631 1.085716 0.043427
v 0.000000 1.647017 0.336557
v -0.431601 1.647017 0.336557
v -1.584126 0.946555 -0.414307
v -1.374653 1.608699 -0.229206
v -1.399927 -0.362420 -0.131139
v -0.688628 -1.055347 0.422847
v -0.990575 -1.217546 0.121052
v -0.436343 -1.303761 0.627415
v -0.402956 -1.966512 0.469452
v -0.119897 -1.387284 0.668287
v -0.173328 -1.905447 0.739064
v 0.000000 -1.387285 0.737365
v 0.000000 -1.905448 0.787152
v 0.000000 2.884698 -0.116336
v -0.622344 2.758577 -0.116336
v 0.000000 -0.253018 0.951603
v -0.231502 -0.383949 0.743584
v 0.000000 -0.483415 0.695748
v -0.212975 -0.749076 0.792049
v 0.000000 -0.782491 0.843121
v -1.258077 2.507661 -0.480059
v -0.227174 -1.152456 0.706441
v 0.000000 -1.173472 0.830821
v -0.225124 -0.953818 0.666842
v 0.000000 -0.966195 0.799345
v 0.000000 -2.135305 0.376480
v -1.828683 0.891879 -1.644997
v -1.592105 2.613208 -1.779834
v -1.599980 -0.879206 -1.209689
v -1.305654 -1.611443 -0.498218
v -0.654470 -2.050973 -0.371603
v 0.000000 3.522483 -1.564324
v -0.633576 3.438415 -1.626783
v -1.394859 -1.610305 -0.912646
v -1.490132 -1.232453 -1.456377
v -1.629712 -0.348498 -1.984563
v -1.334042 2.494535 -3.532488
v -1.388209 -1.701335 -3.110374
v 0.000000 -2.261219 -0.506770
v 0.000000 -3.166896 -1.182050
v -1.438262 -1.791492 -2.464796
v -1.337893 -2.427129 -2.084987
v 0.000000 2.952861 -3.809308
v -0.633280 2.918291 -3.728305
v -1.560105 -0.223120 -2.882343
v -1.473000 1.043449 -3.768281
v 0.000000 1.210508 -4.351522
v -0.844727 1.148215 -4.300970
v -0.817051 -3.015712 -1.360639
v 0.000000 -0.040596 -3.687529
v -0.726495 -0.128815 -3.608654
v 0.000000 -1.707267 -3.824006
v -0.788775 -1.672289 -3.721606
v 0.000000 -2.145819 -2.379358
vn -0.0000 0.5224 0.8527
vn 0.9103 0.2600 0.3222
vn -0.0000 -0.1807 0.9835
vn 0.4658 -0.4932 0.7347
vn 0.6039 0.3740 0.7039
vn 0.6736 -0.1068 0.7313
vn 0.6775 -0.2027 0.7070
vn 0.7690 0.1637 0.6179
vn 0.2640 0.1572 0.9516
vn 0.0695 0.3428 0.9368
vn 0.6813 -0.4771 0.5552
vn -0.0229 -0.3788 0.9252
vn -0.2577 0.1400 0.9560
vn 0.6120 -0.0029 0.7909
vn 0.5056 0.2497 0.8258
vn 0.4779 0.2159 0.8515
vn 0.4669 -0.3542 0.8103
vn 0.4665 0.1328 0.8745
vn 0.4884 0.1754 0.8548
vn 0.2603 -0.2238 0.9392
vn 0.3243 -0.4794 0.8155
vn 0.9460 0.1949 0.2589
vn 0.9709 -0.0885 0.2225
vn 0.8044 -0.2226 0.5508
vn 0.8136 -0.5017 0.2937
vn 0.1343 -0.8647 0.4840
vn 0.1816 0.8962 0.4047
vn 0.5121 0.7818 0.3557
vn 0.9806 0.1228 -0.1527
vn 0.9685 -0.2213 -0.1144
vn 0.9607 -0.1857 0.2063
vn 0.2775 -0.9511 0.1356
vn 0.9907 -0.1012 -0.0909
vn 0.5714 -0.8117 0.1208
vn 0.0819 -0.7067 0.7028
vn 0.1038 0.9640 -0.2446
vn 0.5474 0.8123 -0.2011
vn 0.1173 0.0810 -0.9898
vn 0.9844 -0.0502 -0.1685
vn 0.9806 0.1192 -0.1558
vn 0.1370 0.2943 -0.9458
vn 0.4312 0.3239 -0.8421
vn 0.0183 -0.4687 -0.8832
vn 0.5572 -0.4499 -0.6979
vn 0.9898 -0.1402 0.0268
vn 0.8600 -0.4374 0.2630
vn 0.6589 0.0393 -0.7512
vn 0.1781 -0.7312 0.6585
vn 0.2279 -0.9617 -0.1520
vn -0.0209 -0.7685 -0.6395
vn -0.0258 0.5246 0.8510
vn 0.9244 0.2370 0.2988
vn 0.3157 -0.1615 0.9350
vn 0.4321 -0.4952 0.7537
vn 0.3463 0.1515 0.9258
vn 0.6153 -0.0014 0.7883
vn 0.6794 -0.0903 0.7282
vn 0.1856 -0.2367 0.9537
vn 0.4975 0.0830 0.8635
vn -0.0000 0.3773 0.9261
vn 0.3127 -0.6073 0.7303
vn 0.1442 0.4374 0.8876
vn 0.4701 0.0926 0.8777
vn 0.5588 0.2893 0.7772
vn 0.1864 -0.2399 0.9527
vn 0.4748 -0.3482 0.8083
vn 0.4922 0.1751 0.8527
vn 0.4736 -0.4389 0.7636
vn 0.9514 0.2513 0.1779
vn 0.9610 0.1503 0.2321
vn 0.9772 -0.0776 0.1976
vn 0.9581 -0.1450 0.2472
vn 0.5145 -0.5805 0.6311
vn 0.3405 -0.9199 0.1942
vn 0.2655 -0.8666 0.4224
vn 0.1591 0.9035 0.3980
vn 0.6560 0.7198 0.2270
vn 0.9880 -0.1422 -0.0595
vn 0.9596 -0.2800 -0.0264
vn 0.2748 -0.5747 0.7708
vn 0.0834 0.9673 -0.2394
vn 0.6322 0.7612 -0.1446
vn 0.1250 0.0774 -0.9891
vn 0.9867 -0.1323 -0.0950
vn 0.0799 0.3155 -0.9456
vn 0.6534 0.1820 -0.7348
vn 0.0371 -0.4789 -0.8771
vn 0.5369 -0.4399 -0.7198
vn 0.9854 -0.1585 0.0625
vn 0.6859 -0.4614 0.5628
vn 0.7136 0.0797 -0.6960
vn 0.0799 -0.9538 -0.2896
vn 0.1860 -0.9558 -0.2279
vn -0.0010 -0.7609 -0.6489
vn 0.0777 -0.5204 -0.8504
vn -0.9103 0.2600 0.3222
vn -0.4658 -0.4932 0.7347
vn -0.6039 0.3740 0.7039
vn -0.6736 -0.1068 0.7313
vn -0.6775 -0.2027 0.7070
vn -0.7690 0.1637 0.6179
vn -0.2640 0.1572 0.9516
vn -0.0695 0.3428 0.9368
vn -0.6813 -0.4771 0.5552
vn 0.0229 -0.3788 0.9252
vn 0.2577 0.1400 0.9560
vn -0.6120 -0.0029 0.7909
vn -0.5056 0.2497 0.8258
vn -0.4779 0.2159 0.8515
vn -0.4669 -0.3542 0.8103
vn -0.4665 0.1328 0.8745
vn -0.4884 0.1754 0.8548
vn -0.2603 -0.2238 0.9392
vn -0.3243 -0.4794 0.8155
vn -0.9460 0.1949 0.2589
vn -0.9709 -0.0885 0.2225
vn -0.8044 -0.2226 0.5508
vn -0.8136 -0.5017 0.2937
vn -0.1343 -0.8647 0.4840
vn -0.1816 0.8962 0.4047
vn -0.5121 0.7818 0.3557
vn -0.9806 0.1228 -0.1527
vn -0.9685 -0.2213 -0.1144
vn -0.9607 -0.1857 0.2063
vn -0.2775 -0.9511 0.1356
vn -0.9907 -0.1012 -0.0909
vn -0.5714 -0.8117 0.1208
vn -0.0819 -0.7067 0.7028
vn -0.1038 0.9640 -0.2446
vn -0.5474 0.8123 -0.2011
vn -0.1173 0.0810 -0.9898
vn -0.9844 -0.0502 -0.1685
vn -0.9806 0.1192 -0.1558
vn -0.1370 0.2943 -0.9458
vn -0.4312 0.3239 -0.8421
vn -0.0183 -0.4687 -0.8832
vn -0.5572 -0.4499 -0.6979
vn -0.9898 -0.1402 0.0268
vn -0.8600 -0.4374 0.2630
vn -0.6589 0.0393 -0.7512
vn -0.1781 -0.7312 0.6585
vn -0.2279 -0.9617 -0.1520
vn 0.0209 -0.7685 -0.6395
vn 0.0258 0.5246 0.8510
vn -0.9244 0.2370 0.2988
vn -0.3157 -0.1615 0.9350
vn -0.4321 -0.4952 0.7537
vn -0.3463 0.1515 0.9258
vn -0.6153 -0.0014 0.7883
vn -0.6794 -0.0903 0.7282
vn -0.1856 -0.2367 0.9537
vn -0.4975 0.0830 0.8635
vn -0.3127 -0.6073 0.7303
vn -0.1442 0.4374 0.8876
vn -0.4701 0.0926 0.8777
vn -0.5588 0.2893 0.7772
vn -0.1864 -0.2399 0.9527
vn -0.4748 -0.3482 0.8083
vn -0.4922 0.1751 0.8527
vn -0.4736 -0.4389 0.7636
vn -0.9514 0.2513 0.1779
vn -0.9610 0.1503 0.2321
vn -0.9772 -0.0776 0.1976
vn -0.9581 -0.1450 0.2472
vn -0.5145 -0.5805 0.6311
vn -0.3405 -0.9199 0.1942
vn -0.2655 -0.8666 0.4224
vn -0.1591 0.9035 0.3980
vn -0.6560 0.7198 0.2270
vn -0.9880 -0.1422 -0.0595
vn -0.9596 -0.2800 -0.0264
vn -0.2748 -0.5747 0.7708
vn -0.0834 0.9673 -0.2394
vn -0.6322 0.7612 -0.1446
vn -0.1250 0.0774 -0.9891
vn -0.9867 -0.1323 -0.0950
vn -0.0799 0.3155 -0.9456
vn -0.6534 0.1820 -0.7348
vn -0.0371 -0.4789 -0.8771
vn -0.5369 -0.4399 -0.7198
vn -0.9854 -0.1585 0.0625
vn -0.6859 -0.4614 0.5628
vn -0.7136 0.0797 -0.6960
vn -0.0799 -0.9538 -0.2896
vn -0.1860 -0.9558 -0.2279
vn 0.0010 -0.7609 -0.6489
vn -0.0777 -0.5204 -0.8504
vt 0.486789 0.386219
vt 0.526558 0.673659
vt 0.486788 0.675457
vt 0.509506 0.385259
vt 0.561615 0.577768
vt 0.486789 0.739453
vt 0.547979 0.736423
vt 0.780319 0.278465
vt 0.561976 0.348334
vt 0.601651 0.230627
vt 0.745335 0.194543
vt 0.545821 0.200936
vt 0.640245 0.064883
vt 0.504456 0.194544
vt 0.562118 0.140743
vt 0.486790 0.142399
vt 0.637110 0.967169
vt 0.486786 1.004532
vt 0.521134 0.328307
vt 0.486790 0.357139
vt 0.486790 0.315655
vt 0.511954 0.280161
vt 0.789791 0.690293
vt 0.520250 0.232788
vt 0.486790 0.232985
vt 0.486790 0.196789
vt 0.486790 0.256276
vt 0.526071 0.267154
vt 0.486790 0.276358
vt 0.810829 0.720332
vt 0.793528 0.847232
vt 0.516825 0.007972
vt 0.792031 0.571660
vt 0.502404 0.008036
vt 0.493707 0.007923
vt 0.486791 0.014477
vt 0.702891 0.955396
vt 0.603176 0.993920
vt 0.723318 0.931668
vt 0.828697 0.495251
vt 0.805521 0.673112
vt 0.532699 0.007672
vt 0.514181 0.007647
vt 0.505442 0.007831
vt 0.486793 0.007819
vt 0.546423 0.006820
vt 0.495200 0.004867
vt 0.496620 0.001845
vt 0.489096 0.007996
vt 0.769532 0.894623
vt 0.680748 0.979601
vt 0.744222 0.909134
vt 0.561543 0.005008
vt 0.486792 -0.028257
vt 0.572712 0.003325
vt 0.689556 0.021761
vt 0.710670 0.007797
vt 0.696171 0.017453
vt 0.491978 0.006530
vt 0.486791 0.000533
vt 0.486791 0.008151
vt 0.494967 -0.003283
vt 0.447017 0.673658
vt 0.464073 0.385258
vt 0.404975 0.584612
vt 0.425598 0.736422
vt 0.205074 0.278463
vt 0.411603 0.348334
vt 0.243011 0.194542
vt 0.371929 0.230625
vt 0.347116 0.064883
vt 0.427760 0.200935
vt 0.411463 0.140743
vt 0.469125 0.194543
vt 0.336462 0.967165
vt 0.452445 0.328307
vt 0.461626 0.280160
vt 0.180835 0.690289
vt 0.453330 0.232788
vt 0.447509 0.267153
vt 0.170627 0.722293
vt 0.180048 0.847225
vt 0.456760 0.007972
vt 0.187629 0.570346
vt 0.471180 0.008036
vt 0.479878 0.007923
vt 0.213811 0.894886
vt 0.245569 0.912908
vt 0.303211 0.954844
vt 0.172002 0.779411
vt 0.179259 0.495248
vt 0.440887 0.007672
vt 0.459404 0.007647
vt 0.468143 0.007831
vt 0.427162 0.006820
vt 0.476963 0.001845
vt 0.478383 0.004867
vt 0.484487 0.007996
vt 0.266657 0.925393
vt 0.193628 0.872818
vt 0.212854 0.887756
vt 0.412043 0.005008
vt 0.400874 0.003325
vt 0.350673 0.040598
vt 0.306669 0.018732
vt 0.330560 0.028523
vt 0.481605 0.006529
vt 0.478616 -0.003283
s 0
usemtl Material
f 41/1/1 2/2/1 43/3/1
f 1/4/2 4/5/2 2/2/2
f 2/2/3 47/6/3 43/3/3
f 5/7/4 2/2/4 4/5/4
f 8/8/5 4/5/5 3/9/5
f 8/8/6 9/10/6 10/11/6
f 10/11/7 11/12/7 12/13/7
f 12/13/8 13/14/8 14/15/8
f 13/14/9 59/16/9 14/15/9
f 47/6/10 15/17/10 60/18/10
f 1/4/11 16/19/11 3/9/11
f 1/4/12 41/1/12 62/20/12
f 64/21/13 17/22/13 16/19/13
f 3/9/14 17/22/14 9/10/14
f 7/23/15 15/17/15 5/7/15
f 11/12/16 9/10/16 19/24/16
f 69/25/17 58/26/17 13/14/17
f 19/24/18 71/27/18 69/25/18
f 19/24/19 9/10/19 20/28/19
f 71/27/20 17/22/20 66/29/20
f 17/22/21 20/28/21 9/10/21
f 22/30/22 18/31/22 7/23/22
f 23/32/23 6/33/23 8/8/23
f 24/34/24 8/8/24 10/11/24
f 25/35/25 10/11/25 12/13/25
f 14/15/26 59/16/26 72/36/26
f 26/37/27 60/38/27 15/39/27
f 18/31/28 26/37/28 15/39/28
f 22/30/29 21/40/29 30/41/29
f 29/42/30 23/32/30 28/43/30
f 27/44/31 23/32/31 24/34/31
f 25/35/32 72/36/32 85/45/32
f 35/46/33 32/47/33 31/48/33
f 25/35/34 27/44/34 24/34/34
f 85/45/35 38/49/35 25/35/35
f 26/37/36 89/50/36 78/51/36
f 26/37/37 30/41/37 34/52/37
f 39/53/38 98/54/38 96/55/38
f 21/40/39 35/46/39 36/56/39
f 30/41/40 21/40/40 36/56/40
f 34/52/41 93/57/41 89/50/41
f 30/41/42 37/58/42 34/52/42
f 37/58/43 96/55/43 93/57/43
f 39/53/44 36/56/44 35/46/44
f 28/43/45 32/47/45 29/42/45
f 33/59/46 27/44/46 38/49/46
f 31/48/47 39/53/47 35/46/47
f 16/19/48 62/20/48 64/21/48
f 31/48/49 32/47/49 100/60/49
f 100/60/50 33/59/50 38/49/50
f 41/1/51 1/4/51 2/2/51
f 1/4/52 3/9/52 4/5/52
f 2/2/3 5/7/3 47/6/3
f 4/5/53 6/33/53 7/23/53
f 7/23/54 5/7/54 4/5/54
f 8/8/55 6/33/55 4/5/55
f 8/8/56 3/9/56 9/10/56
f 10/11/57 9/10/57 11/12/57
f 12/13/58 11/12/58 13/14/58
f 13/14/59 58/26/59 59/16/59
f 47/6/60 5/7/60 15/17/60
f 1/4/61 62/20/61 16/19/61
f 64/21/62 66/29/62 17/22/62
f 3/9/63 16/19/63 17/22/63
f 7/23/64 18/31/64 15/17/64
f 13/14/65 11/12/65 19/24/65
f 19/24/66 69/25/66 13/14/66
f 19/24/67 20/28/67 71/27/67
f 71/27/68 20/28/68 17/22/68
f 6/33/69 21/40/69 7/23/69
f 21/40/70 22/30/70 7/23/70
f 23/32/71 21/40/71 6/33/71
f 24/34/72 23/32/72 8/8/72
f 25/35/73 24/34/73 10/11/73
f 25/35/74 12/13/74 72/36/74
f 12/13/75 14/15/75 72/36/75
f 26/37/76 78/51/76 60/38/76
f 18/31/77 22/30/77 26/37/77
f 29/42/78 21/40/78 23/32/78
f 27/44/79 28/43/79 23/32/79
f 35/46/33 29/42/33 32/47/33
f 85/45/80 86/61/80 38/49/80
f 26/37/81 34/52/81 89/50/81
f 26/37/82 22/30/82 30/41/82
f 39/53/83 40/62/83 98/54/83
f 21/40/84 29/42/84 35/46/84
f 34/52/85 37/58/85 93/57/85
f 30/41/86 36/56/86 37/58/86
f 37/58/87 39/53/87 96/55/87
f 39/53/88 37/58/88 36/56/88
f 28/43/45 33/59/45 32/47/45
f 28/43/89 27/44/89 33/59/89
f 27/44/90 25/35/90 38/49/90
f 31/48/91 40/62/91 39/53/91
f 98/54/92 40/62/92 100/60/92
f 40/62/93 31/48/93 100/60/93
f 38/49/94 86/61/94 100/60/94
f 100/60/95 32/47/95 33/59/95
f 41/1/1 43/3/1 44/63/1
f 42/64/96 44/63/96 46/65/96
f 44/63/3 43/3/3 47/6/3
f 48/66/97 46/65/97 44/63/97
f 51/67/98 45/68/98 46/65/98
f 51/67/99 53/69/99 52/70/99
f 53/69/100 55/71/100 54/72/100
f 55/71/101 57/73/101 56/74/101
f 56/74/102 57/73/102 59/16/102
f 47/6/103 60/18/103 61/75/103
f 42/64/104 45/68/104 63/76/104
f 42/64/105 62/20/105 41/1/105
f 64/21/106 63/76/106 65/77/106
f 45/68/107 52/70/107 65/77/107
f 50/78/108 48/66/108 61/75/108
f 54/72/109 68/79/109 52/70/109
f 69/25/110 56/74/110 58/26/110
f 68/79/111 69/25/111 71/27/111
f 68/79/112 70/80/112 52/70/112
f 71/27/113 66/29/113 65/77/113
f 65/77/114 52/70/114 70/80/114
f 74/81/115 50/78/115 67/82/115
f 75/83/116 51/67/116 49/84/116
f 76/85/117 53/69/117 51/67/117
f 77/86/118 55/71/118 53/69/118
f 57/73/119 72/36/119 59/16/119
f 79/87/120 61/88/120 60/89/120
f 67/82/121 61/88/121 79/87/121
f 74/81/122 83/90/122 73/91/122
f 82/92/123 81/93/123 75/83/123
f 80/94/124 76/85/124 75/83/124
f 77/86/125 85/45/125 72/36/125
f 91/95/126 84/96/126 87/97/126
f 77/86/127 76/85/127 80/94/127
f 85/45/128 77/86/128 95/98/128
f 79/87/129 78/99/129 89/100/129
f 79/87/130 90/101/130 83/90/130
f 97/102/131 96/103/131 98/54/131
f 73/91/132 92/104/132 91/95/132
f 83/90/133 92/104/133 73/91/133
f 90/101/134 89/100/134 93/105/134
f 83/90/135 90/101/135 94/106/135
f 94/106/136 93/105/136 96/103/136
f 97/102/137 91/95/137 92/104/137
f 81/93/138 82/92/138 87/97/138
f 88/107/139 95/98/139 80/94/139
f 84/96/140 91/95/140 97/102/140
f 63/76/141 64/21/141 62/20/141
f 84/96/142 100/60/142 87/97/142
f 100/60/143 95/98/143 88/107/143
f 41/1/144 44/63/144 42/64/144
f 42/64/145 46/65/145 45/68/145
f 44/63/3 47/6/3 48/66/3
f 46/65/146 50/78/146 49/84/146
f 50/78/147 46/65/147 48/66/147
f 51/67/148 46/65/148 49/84/148
f 51/67/149 52/70/149 45/68/149
f 53/69/150 54/72/150 52/70/150
f 55/71/151 56/74/151 54/72/151
f 56/74/152 59/16/152 58/26/152
f 47/6/60 61/75/60 48/66/60
f 42/64/153 63/76/153 62/20/153
f 64/21/154 65/77/154 66/29/154
f 45/68/155 65/77/155 63/76/155
f 50/78/156 61/75/156 67/82/156
f 56/74/157 68/79/157 54/72/157
f 68/79/158 56/74/158 69/25/158
f 68/79/159 71/27/159 70/80/159
f 71/27/160 65/77/160 70/80/160
f 49/84/161 50/78/161 73/91/161
f 73/91/162 50/78/162 74/81/162
f 75/83/163 49/84/163 73/91/163
f 76/85/164 51/67/164 75/83/164
f 77/86/165 53/69/165 76/85/165
f 77/86/166 72/36/166 55/71/166
f 55/71/167 72/36/167 57/73/167
f 79/87/168 60/89/168 78/99/168
f 67/82/169 79/87/169 74/81/169
f 82/92/170 75/83/170 73/91/170
f 80/94/171 75/83/171 81/93/171
f 91/95/126 87/97/126 82/92/126
f 85/45/172 95/98/172 86/61/172
f 79/87/173 89/100/173 90/101/173
f 79/87/174 83/90/174 74/81/174
f 97/102/175 98/54/175 99/108/175
f 73/91/176 91/95/176 82/92/176
f 90/101/177 93/105/177 94/106/177
f 83/90/178 94/106/178 92/104/178
f 94/106/179 96/103/179 97/102/179
f 97/102/180 92/104/180 94/106/180
f 81/93/138 87/97/138 88/107/138
f 81/93/181 88/107/181 80/94/181
f 80/94/182 95/98/182 77/86/182
f 84/96/183 97/102/183 99/108/183
f 98/54/184 100/60/184 99/108/184
f 99/108/185 100/60/185 84/96/185
f 95/98/186 100/60/186 86/61/186
f 100/60/187 88/107/187 87/97/187
